# xmcd
#
# Track frame offsets:
#	187
#	13537
#	25837
#	35962
#	49162
#	62362
#	75112
#	89137
#	101662
#	115237
#	127612
#	140737
#	159037
#	171937
#
# Disc length: 2469 seconds
# Revision: 3
# Processed by: cddbd v1.5.2PL0 Copyright (c) Steve Scherf et al.
# Submitted via: dBpowerAMP V12.0
#
DISCID=aa09a30e
DTITLE=Howlin' Wolf - The Very Best Of Howlin' Wolf
DYEAR=1995
DGENRE=Blues
TTITLE0=Moanin' At Midnight
TTITLE1=How Many More Years
TTITLE2=All Night Boogie
TTITLE3=Baby How Long
TTITLE4=Evil
TTITLE5=Forty Four
TTITLE6=Smokestack Lightnin'
TTITLE7=Moanin' For My Baby
TTITLE8=I'm Leavin' You
TTITLE9=Spoonful
TTITLE10=I Ain't Superstitious
TTITLE11=Goin' Down Slow
TTITLE12=Killing Floor
TTITLE13=Poor Boy
EXTD=
EXTT0=
EXTT1=
EXTT2=
EXTT3=
EXTT4=
EXTT5=
EXTT6=
EXTT7=
EXTT8=
EXTT9=
EXTT10=
EXTT11=
EXTT12=
EXTT13=
PLAYORDER=
